<svg width="375" height="396" viewBox="0 0 375 396" fill="none" xmlns="http://www.w3.org/2000/svg">
<g filter="url(#filter0_f_36_846)">
<ellipse cx="194.5" cy="362.5" rx="136.5" ry="7.5" fill="#9E8C6C"/>
</g>
<g filter="url(#filter1_f_36_846)">
<path d="M269.142 359.171C269.142 361.427 263.436 361.214 200.665 366.321C127 371.427 127 363.47 127 361.214C127 358.957 130.631 351 219.341 351C280.653 351 269.142 356.915 269.142 359.171Z" fill="#9E8C6C"/>
</g>
<g filter="url(#filter2_f_36_846)">
<path d="M197 352.381C196.672 354.075 181.299 365.254 149.128 363.014C111.502 359.718 112.657 353.744 112.985 352.05C113.312 350.356 113.761 350.381 159 350.381C189.5 350.381 197.327 350.687 197 352.381Z" fill="#563313"/>
</g>
<g filter="url(#filter3_f_36_846)">
<path d="M299 351.5C298.672 353.194 286.17 362.741 254 360.5C227.5 366 218.984 351.614 219.311 349.92C219.639 348.226 220.811 347.039 263.811 349.92C294.243 351.959 299.327 349.806 299 351.5Z" fill="#563313"/>
</g>
<path d="M61.8236 151.5C63.0236 134.3 85.9903 123.333 97.3236 120C107.324 125.833 129.024 139.2 135.824 146C144.324 154.5 85.8236 255 77.3236 254C68.8236 253 69.3236 261 48.3236 280.5C27.3236 300 10.3236 264.5 11.8236 246.5C13.3236 228.5 7.32361 227.5 1.82361 218.5C-3.67639 209.5 3.82361 205.5 16.8236 201C29.8236 196.5 60.3236 173 61.8236 151.5Z" fill="#C05A5D"/>
<mask id="mask0_36_846" style="mask-type:alpha" maskUnits="userSpaceOnUse" x="0" y="120" width="137" height="167">
<path d="M61.8236 151.5C63.0236 134.3 85.9903 123.333 97.3236 120C107.324 125.833 129.024 139.2 135.824 146C144.324 154.5 85.8236 255 77.3236 254C68.8236 253 69.3236 261 48.3236 280.5C27.3236 300 10.3236 264.5 11.8236 246.5C13.3236 228.5 7.32361 227.5 1.82361 218.5C-3.67639 209.5 3.82361 205.5 16.8236 201C29.8236 196.5 60.3236 173 61.8236 151.5Z" fill="#9E2F32"/>
</mask>
<g mask="url(#mask0_36_846)">
<g opacity="0.4" filter="url(#filter4_f_36_846)">
<path d="M43.2449 292.083C27.6124 279.333 34.2433 226.148 39.5128 201.149L91.6606 255.663C82.0356 273.115 58.8774 304.832 43.2449 292.083Z" fill="#4E0C06"/>
</g>
<g opacity="0.4" filter="url(#filter5_f_36_846)">
<path d="M71.4761 142.186C75.3116 136.565 90.4227 128.134 98.9761 129.186L85.1968 154.205C79.0546 151.472 67.6407 147.806 71.4761 142.186Z" fill="#4E0C06"/>
</g>
<g filter="url(#filter6_f_36_846)">
<path d="M61.5054 273.124C48.6387 266.309 45.8163 227.726 46.0135 209.286L90.6284 240.503C86.2819 254.216 74.3722 279.939 61.5054 273.124Z" fill="#4E0C06"/>
</g>
<g filter="url(#filter7_f_36_846)">
<path d="M35.8721 206.5C27.0721 207.3 8.20541 202.5 -0.12792 200C-3.96125 200 -10.5575 215.478 12.8721 267.5C42.3721 333 20.3721 257.5 20.3721 227.5C20.3721 211.928 46.8721 205.5 35.8721 206.5Z" fill="#9E2E31"/>
</g>
</g>
<g filter="url(#filter8_iii_36_846)">
<path d="M46.3137 166.439C54.3137 154.439 82.647 138.105 95.8137 131.439C111.814 122.609 110.314 156.439 106.314 177.939C104.24 189.083 99.3137 221.939 103.814 234.939C108.314 247.939 107.814 252.439 110.314 269.939C112.814 287.439 124.314 289.939 103.814 290.439C83.3137 290.939 84.3137 259.939 76.8137 258.939C69.3137 257.939 55.8137 239.939 46.3137 221.939C36.8137 203.939 36.3137 181.439 46.3137 166.439Z" fill="#E2C693"/>
</g>
<mask id="mask1_36_846" style="mask-type:alpha" maskUnits="userSpaceOnUse" x="39" y="130" width="77" height="161">
<path d="M46.3137 166.439C54.3137 154.439 82.647 138.105 95.8137 131.439C111.814 122.609 110.314 156.439 106.314 177.939C104.24 189.083 99.3137 221.939 103.814 234.939C108.314 247.939 107.814 252.439 110.314 269.939C112.814 287.439 124.314 289.939 103.814 290.439C83.3137 290.939 84.3137 259.939 76.8137 258.939C69.3137 257.939 55.8137 239.939 46.3137 221.939C36.8137 203.939 36.3137 181.439 46.3137 166.439Z" fill="#E2C693"/>
</mask>
<g mask="url(#mask1_36_846)">
<g filter="url(#filter9_f_36_846)">
<path d="M86.7336 163.036C96.3336 153.436 106.4 155.703 110.234 158.036C109.567 177.703 130.634 281.436 126.234 289.036C120.734 298.536 94.7336 299.626 94.7336 294.036C94.7336 223.536 68.2336 234.536 54.7336 195.536C51.1132 185.077 61.7336 175.536 68.2336 171.036C74.7336 166.536 74.7336 175.036 86.7336 163.036Z" fill="#976C34"/>
</g>
<g filter="url(#filter10_f_36_846)">
<path d="M65.7133 187.73C91.4382 185.877 100.538 169.283 101.873 161.218C114.473 196.533 97.9063 215.838 96.0741 220.317C94.2419 224.796 78.7288 228.811 77.6385 213.676C76.7662 201.568 69.3249 191.333 65.7133 187.73Z" fill="#72512B"/>
</g>
<g filter="url(#filter11_f_36_846)">
<path d="M79.1748 192.008C94.9014 192.008 101.163 182.264 102.328 177.393C108.444 199.537 97.5225 210.609 96.2119 213.266C94.9014 215.923 85.2907 217.695 85.2907 208.394C85.2907 200.954 81.2134 194.37 79.1748 192.008Z" fill="#442E15"/>
</g>
<g filter="url(#filter12_f_36_846)">
<path d="M102.775 252.55C99.56 242.568 101.436 228.691 102.775 223C110.584 223 117.512 271.593 120 295.889C117.129 296.108 111.043 296.152 109.665 294.576C107.943 292.606 111.388 285.382 111.388 280.129C111.388 274.876 106.794 265.026 102.775 252.55Z" fill="#492308"/>
</g>
</g>
<g filter="url(#filter13_ii_36_846)">
<path d="M372 158.504C364 138.504 336 133.838 323 134.004C321.833 144.004 320.2 167.704 323 182.504C326.5 201.004 317 250.004 316 255.004C315.2 259.004 305 283.004 300 294.504C304 294.504 313.5 291.504 319.5 279.504C327 264.504 339 250.504 350.5 232.504L350.755 232.106C362.292 214.05 381.927 183.321 372 158.504Z" fill="#EEC57D"/>
</g>
<mask id="mask2_36_846" style="mask-type:alpha" maskUnits="userSpaceOnUse" x="300" y="134" width="75" height="161">
<path d="M372 158.504C364 138.504 336 133.838 323 134.004C321.833 144.004 320.2 167.704 323 182.504C326.5 201.004 317 250.004 316 255.004C315.2 259.004 305 283.004 300 294.504C304 294.504 313.5 291.504 319.5 279.504C327 264.504 339 250.504 350.5 232.504L350.755 232.106C362.292 214.05 381.927 183.321 372 158.504Z" fill="#E2C693"/>
</mask>
<g mask="url(#mask2_36_846)">
<g filter="url(#filter14_f_36_846)">
<path d="M349.272 170.513C344.472 166.113 329.939 172.347 323.272 176.013C321.272 181.847 316.072 199.113 311.272 221.513C305.272 249.513 302.772 257.013 323.272 232.013C343.772 207.013 355.272 176.013 349.272 170.513Z" fill="url(#paint0_linear_36_846)"/>
</g>
<g filter="url(#filter15_f_36_846)">
<path d="M319.692 247.657C325.397 225.18 316.876 223.692 311.903 225.758C306.334 245.833 294.618 287.791 292.313 295.022C289.432 304.06 304.431 303.863 304.358 298.363C304.286 292.864 312.561 275.754 319.692 247.657Z" fill="#512003"/>
</g>
<g filter="url(#filter16_f_36_846)">
<path d="M338.131 175.851C335.504 173.376 327.552 176.883 323.904 178.946C322.81 182.228 319.964 191.943 317.338 204.546C314.055 220.299 312.687 224.519 323.904 210.453C335.121 196.387 341.414 178.946 338.131 175.851Z" fill="url(#paint1_linear_36_846)"/>
</g>
</g>
<g filter="url(#filter17_ii_36_846)">
<path d="M105.233 81.6434C103.233 58.4434 125.733 34.1436 136.233 23.6435C163.984 -4.10765 241.808 -10.2974 277.233 20.6434C316.733 55.1435 324.233 84.1434 326.233 149.143C328.233 214.143 323.233 254.143 309.233 275.643C295.233 297.143 296.733 326.643 297.233 338.643C297.733 350.643 294.233 356.643 280.233 356.643C266.233 356.643 218.733 366.643 222.233 340.643C225.733 314.643 201.733 322.143 196.233 324.143C190.733 326.143 196.233 341.143 192.233 352.143C188.233 363.143 144.786 360.826 125.733 356.643C105.233 352.143 120.5 344.5 116.233 295.643C115.445 286.622 105.233 262.143 105.233 252.643C105.233 243.143 92.9179 221 96.7333 191.143C100.825 159.121 107.733 110.643 105.233 81.6434Z" fill="#EDC377"/>
</g>
<mask id="mask3_36_846" style="mask-type:alpha" maskUnits="userSpaceOnUse" x="96" y="0" width="231" height="361">
<path d="M105.233 81.6434C103.233 58.4434 125.733 34.1436 136.233 23.6435C163.984 -4.10765 241.808 -10.2974 277.233 20.6434C316.733 55.1435 324.233 84.1434 326.233 149.143C328.233 214.143 323.233 254.143 309.233 275.643C295.233 297.143 296.733 326.643 297.233 338.643C297.733 350.643 294.233 356.643 280.233 356.643C266.233 356.643 218.733 366.643 222.233 340.643C225.733 314.643 201.733 322.143 196.233 324.143C190.733 326.143 196.233 341.143 192.233 352.143C188.233 363.143 144.731 361.069 125.733 356.643C106.418 352.143 122.389 321 116.233 295.643C114.097 286.844 105.233 262.143 105.233 252.643C105.233 243.143 92.9179 221 96.7333 191.143C100.825 159.121 107.733 110.643 105.233 81.6434Z" fill="#E2C693"/>
</mask>
<g mask="url(#mask3_36_846)">
<g filter="url(#filter18_f_36_846)">
<path d="M199.292 326.841C152.778 329.893 100.383 288.267 80 267.073C86.5159 -3.7912 378.731 232.738 338.132 274.067C297.532 315.396 257.434 323.026 199.292 326.841Z" fill="url(#paint2_linear_36_846)"/>
</g>
<g filter="url(#filter19_f_36_846)">
<path d="M136.31 356.569C144.71 354.169 150.974 323.354 168.81 325.069C194.81 327.569 198.707 323.69 201.207 336.69C203.707 349.69 191.707 360.19 186.707 364.69C181.707 369.19 125.81 359.569 136.31 356.569Z" fill="url(#paint3_linear_36_846)"/>
</g>
<g filter="url(#filter20_f_36_846)">
<path d="M188.546 328.516C185.746 336.516 187.379 351.516 188.546 358.016L245 366.5C249.5 348.167 249.8 309.3 239 314.5C225.5 321 207.546 322.016 204.546 321.016C201.546 320.016 192.046 318.516 188.546 328.516Z" fill="#6D3B0A"/>
</g>
<g filter="url(#filter21_f_36_846)">
<path d="M119.5 359C113.1 357.4 114.166 351.667 115.5 349C127.5 358.5 146 355 165.5 356C185 357 193.5 350 193.5 351C193.5 352 194.5 355 188 360.5C181.5 366 127.5 361 119.5 359Z" fill="#A07241"/>
</g>
<g opacity="0.4" filter="url(#filter22_f_36_846)">
<path d="M146.112 289.723C142.112 265.056 146.712 221.823 197.112 246.223C247.512 270.623 184.112 285.39 146.112 289.723Z" fill="url(#paint4_linear_36_846)"/>
</g>
</g>
<path d="M100.5 77.0002C101.3 76.2002 103.97 75.2743 105.303 74.9409C105.303 75.4409 105 80.0002 105.5 83.5002C106 87.0002 106 90.5002 105.5 94.0002C105 97.5002 95 94.0002 95 87.0002C95 80.0002 99.5 78.0002 100.5 77.0002Z" fill="url(#paint5_linear_36_846)"/>
<path d="M321 93L320 87.5C320.5 87.5 322.101 88.6341 323.5 90.5C325.157 92.709 322 92.6667 321 93Z" fill="url(#paint6_linear_36_846)"/>
<g filter="url(#filter23_f_36_846)">
<path d="M107 101C98.2 98.6 100.667 90.3333 103 86.5C109.5 86.5 134 95.5 147 95.5C160 95.5 178.5 92.5 195.5 97C212.5 101.5 238.5 95.5 247 95.5C255.5 95.5 283.5 97 290.5 95.5C302.078 93.019 319.782 92.5464 320.536 89.9535C320.428 89.4708 320.402 89.2689 320.5 89.5C320.567 89.6582 320.578 89.8091 320.536 89.9535C320.97 91.9028 322.733 98.4313 323 99.5C314 101.333 295.1 105 291.5 105C287 105 241 108 219 106C197 104 167.5 104 152.5 108C137.5 112 118 104 107 101Z" fill="#735634"/>
</g>
<g opacity="0.6" filter="url(#filter24_f_36_846)">
<path d="M132 163.5C99.6 158.3 90 139.834 90 132.5C108 108 298.113 110.897 324 128.5C336.5 137 325 149.5 314.5 154C263.614 175.809 172.5 170 132 163.5Z" fill="#523F34"/>
</g>
<g opacity="0.6" filter="url(#filter25_f_36_846)">
<path d="M142.5 164C102 157.5 91 141.125 91 133.792C109 109.292 299.113 112.189 325 129.792C337.5 138.292 328 152.18 317 155.5C264 171.5 183 170.5 142.5 164Z" fill="#453329"/>
</g>
<g filter="url(#filter26_ii_36_846)">
<path d="M87.9391 128.185C82.904 87.185 99.7529 73.2285 105.325 74.9517C88.3849 85.2668 102 92.0002 125 97.5002C148 103 174.939 93.1851 182.939 93.1851C190.939 93.1851 216.939 96.1851 229.939 96.1851C242.939 96.1851 259.939 87.1851 273.439 93.1851C286.939 99.1851 309.439 93.6851 318.939 93.1851C326.539 92.7851 322.5 89.5002 320 87.5002C338 85.5002 332.939 137.185 332.439 140.685C331.939 144.185 325.439 152.685 315.439 156.685C305.439 160.685 94.9391 185.185 87.9391 128.185Z" fill="#80B4F0"/>
</g>
<mask id="mask4_36_846" style="mask-type:alpha" maskUnits="userSpaceOnUse" x="87" y="75" width="247" height="91">
<path d="M87.9396 128.185C82.9045 87.1853 99.4396 73.1854 105.94 75.1854C83.9396 84.6854 101.94 93.1854 124.94 98.6854C147.94 104.185 174.94 93.1854 182.94 93.1854C190.94 93.1854 216.94 96.1854 229.94 96.1854C242.94 96.1854 259.94 87.1854 273.44 93.1854C286.94 99.1854 309.44 93.6854 318.94 93.1854C326.54 92.7854 322.5 89.5005 320 87.5005C338 85.5005 332.94 137.185 332.44 140.685C331.94 144.185 325.44 152.685 315.44 156.685C305.44 160.685 94.9395 185.185 87.9396 128.185Z" fill="#80B4F0"/>
</mask>
<g mask="url(#mask4_36_846)">
<g filter="url(#filter27_f_36_846)">
<path d="M66.0116 82.5005C66.4116 80.5005 106.345 88.8338 115.012 80.0005C91.0116 106.8 90.0116 133.5 105.512 163C75.5116 147 65.6116 84.5005 66.0116 82.5005Z" fill="#98C6F6"/>
</g>
<g filter="url(#filter28_f_36_846)">
<path d="M315.5 109.758C308.834 96.5442 288 95.2579 281 96.7579C287.167 93.5913 303.5 87.9579 319.5 90.7579C339.5 94.2579 329.764 97.0142 328.5 109.758C325.5 140 316.5 160 309 160C301.5 160 330 138.5 315.5 109.758Z" fill="#598EC0"/>
</g>
<g filter="url(#filter29_f_36_846)">
<path d="M112.5 91.2229C107.7 113.223 106.5 134.001 106.5 141.001C141.5 157.501 191 161.501 191 157.501C191 152.501 191 145.223 195 131.223C199 117.223 189.5 119.501 182.5 105.001C175.5 90.5007 165 110.001 143.5 110.001C122 110.001 118.5 63.7229 112.5 91.2229Z" fill="#598EC0"/>
</g>
</g>
<g filter="url(#filter30_f_36_846)">
<path d="M219.596 145C232.396 143 243.596 122.834 247.596 113L265.596 137.5C266.262 145.334 278.078 146.58 270.5 151C264.5 154.5 249.5 150.5 240.5 143C235.5 163 212 158.5 203.5 157C195 155.5 203.596 147.5 219.596 145Z" fill="#274F76"/>
</g>
<g filter="url(#filter31_diii_36_846)">
<path d="M185.344 122.172C188.144 111.372 198.177 106.005 202.844 104.672C220.344 95.6717 249.344 118.172 238.844 141.672C228.344 165.172 211.844 159.672 198.344 155.672C184.844 151.672 181.844 135.672 185.344 122.172Z" fill="white"/>
<path d="M248.844 139.172C231.644 116.372 248.677 103.005 259.344 99.1717C291.844 96.6717 292.344 122.172 292.344 130.172C292.344 138.172 270.344 167.672 248.844 139.172Z" fill="white"/>
</g>
<g filter="url(#filter32_i_36_846)">
<circle cx="277.137" cy="120.137" r="5.82695" transform="rotate(75 277.137 120.137)" fill="#292929"/>
</g>
<g filter="url(#filter33_f_36_846)">
<ellipse cx="280.787" cy="122.431" rx="2.54929" ry="0.719828" transform="rotate(35.8913 280.787 122.431)" fill="white"/>
</g>
<g filter="url(#filter34_f_36_846)">
<ellipse cx="281.007" cy="122.994" rx="1.7411" ry="0.468661" transform="rotate(35.8913 281.007 122.994)" fill="white"/>
</g>
<g filter="url(#filter35_i_36_846)">
<circle cx="228.137" cy="127.137" r="5.82695" transform="rotate(75 228.137 127.137)" fill="#292929"/>
</g>
<g filter="url(#filter36_f_36_846)">
<ellipse cx="231.787" cy="129.431" rx="2.54929" ry="0.719828" transform="rotate(35.8913 231.787 129.431)" fill="white"/>
</g>
<g filter="url(#filter37_f_36_846)">
<ellipse cx="231.978" cy="129.939" rx="1.77075" ry="0.378893" transform="rotate(35.8913 231.978 129.939)" fill="white"/>
</g>
<g filter="url(#filter38_dd_36_846)">
<path d="M194 194.197C193 192.893 230.3 167.197 241.5 165.197C255.5 162.697 195 195.5 194 194.197Z" fill="#341206"/>
</g>
<g opacity="0.8" filter="url(#filter39_f_36_846)">
<path d="M255.934 188.403C232.868 185.208 199.306 192.652 185.408 196.773C171.544 200.229 183.735 209.907 172.5 216C159.592 223 175.258 218.779 178.057 232.441C180.855 246.104 253.25 240.333 253.456 236.339C253.663 232.344 277.312 230.062 273.859 219.369C270.407 208.677 293.341 200.85 291.499 197.751C289.656 194.652 284.766 192.396 255.934 188.403Z" fill="url(#paint7_linear_36_846)"/>
</g>
<g filter="url(#filter40_f_36_846)">
<path d="M196.5 198.5C194.5 192.5 202.333 189.333 206.5 188.5C215.166 183.167 241 170.8 275 164C317.5 155.5 303.5 175.5 304 182C304.5 188.5 304 210 280 195.5C256 181 199 206 196.5 198.5Z" fill="#FFDA97"/>
</g>
<g opacity="0.7" filter="url(#filter41_f_36_846)">
<path d="M228.344 178.553C223 182.5 193.5 191.526 193.5 200.5C209 196.5 247.559 210.487 246.994 191.526C246.429 172.565 238.869 170.779 228.344 178.553Z" fill="#CDA668"/>
</g>
<g filter="url(#filter42_f_36_846)">
<path d="M193.128 195.57C194.177 199.842 290.682 157.46 241.079 170.513C235.189 172.063 221.268 181.986 209.128 188.57C201.687 192.605 192.729 193.946 193.128 195.57Z" fill="url(#paint8_linear_36_846)"/>
</g>
<g filter="url(#filter43_ddiii_36_846)">
<path d="M219.898 289.591C209.216 288.88 215.447 251.966 219.898 233.598C221.958 224.266 229.69 228.265 229.69 233.598C229.69 245.205 225.239 266.483 227.464 281.148C259.954 281.148 256.282 276.883 258.952 285.771C260.288 290.215 233.25 290.48 219.898 289.591Z" fill="#80B4F0"/>
</g>
<defs>
<filter id="filter0_f_36_846" x="32" y="329" width="325" height="67" filterUnits="userSpaceOnUse" color-interpolation-filters="sRGB">
<feFlood flood-opacity="0" result="BackgroundImageFix"/>
<feBlend mode="normal" in="SourceGraphic" in2="BackgroundImageFix" result="shape"/>
<feGaussianBlur stdDeviation="13" result="effect1_foregroundBlur_36_846"/>
</filter>
<filter id="filter1_f_36_846" x="119" y="343" width="159" height="33" filterUnits="userSpaceOnUse" color-interpolation-filters="sRGB">
<feFlood flood-opacity="0" result="BackgroundImageFix"/>
<feBlend mode="normal" in="SourceGraphic" in2="BackgroundImageFix" result="shape"/>
<feGaussianBlur stdDeviation="4" result="effect1_foregroundBlur_36_846"/>
</filter>
<filter id="filter2_f_36_846" x="106.899" y="344.381" width="96.1104" height="24.9277" filterUnits="userSpaceOnUse" color-interpolation-filters="sRGB">
<feFlood flood-opacity="0" result="BackgroundImageFix"/>
<feBlend mode="normal" in="SourceGraphic" in2="BackgroundImageFix" result="shape"/>
<feGaussianBlur stdDeviation="3" result="effect1_foregroundBlur_36_846"/>
</filter>
<filter id="filter3_f_36_846" x="213.303" y="342.177" width="91.7109" height="25.5693" filterUnits="userSpaceOnUse" color-interpolation-filters="sRGB">
<feFlood flood-opacity="0" result="BackgroundImageFix"/>
<feBlend mode="normal" in="SourceGraphic" in2="BackgroundImageFix" result="shape"/>
<feGaussianBlur stdDeviation="3" result="effect1_foregroundBlur_36_846"/>
</filter>
<filter id="filter4_f_36_846" x="18.5039" y="186.149" width="88.1562" height="123.879" filterUnits="userSpaceOnUse" color-interpolation-filters="sRGB">
<feFlood flood-opacity="0" result="BackgroundImageFix"/>
<feBlend mode="normal" in="SourceGraphic" in2="BackgroundImageFix" result="shape"/>
<feGaussianBlur stdDeviation="7.5" result="effect1_foregroundBlur_36_846"/>
</filter>
<filter id="filter5_f_36_846" x="64.7051" y="123.096" width="40.2715" height="37.1089" filterUnits="userSpaceOnUse" color-interpolation-filters="sRGB">
<feFlood flood-opacity="0" result="BackgroundImageFix"/>
<feBlend mode="normal" in="SourceGraphic" in2="BackgroundImageFix" result="shape"/>
<feGaussianBlur stdDeviation="3" result="effect1_foregroundBlur_36_846"/>
</filter>
<filter id="filter6_f_36_846" x="31.0039" y="194.286" width="74.624" height="94.9658" filterUnits="userSpaceOnUse" color-interpolation-filters="sRGB">
<feFlood flood-opacity="0" result="BackgroundImageFix"/>
<feBlend mode="normal" in="SourceGraphic" in2="BackgroundImageFix" result="shape"/>
<feGaussianBlur stdDeviation="7.5" result="effect1_foregroundBlur_36_846"/>
</filter>
<filter id="filter7_f_36_846" x="-15" y="189" width="64.5459" height="115.462" filterUnits="userSpaceOnUse" color-interpolation-filters="sRGB">
<feFlood flood-opacity="0" result="BackgroundImageFix"/>
<feBlend mode="normal" in="SourceGraphic" in2="BackgroundImageFix" result="shape"/>
<feGaussianBlur stdDeviation="5.5" result="effect1_foregroundBlur_36_846"/>
</filter>
<filter id="filter8_iii_36_846" x="38" y="121" width="115.785" height="180.445" filterUnits="userSpaceOnUse" color-interpolation-filters="sRGB">
<feFlood flood-opacity="0" result="BackgroundImageFix"/>
<feBlend mode="normal" in="SourceGraphic" in2="BackgroundImageFix" result="shape"/>
<feColorMatrix in="SourceAlpha" type="matrix" values="0 0 0 0 0 0 0 0 0 0 0 0 0 0 0 0 0 0 127 0" result="hardAlpha"/>
<feOffset dx="38" dy="-9"/>
<feGaussianBlur stdDeviation="38.5"/>
<feComposite in2="hardAlpha" operator="arithmetic" k2="-1" k3="1"/>
<feColorMatrix type="matrix" values="0 0 0 0 0.595833 0 0 0 0 0.414902 0 0 0 0 0.228403 0 0 0 1 0"/>
<feBlend mode="normal" in2="shape" result="effect1_innerShadow_36_846"/>
<feColorMatrix in="SourceAlpha" type="matrix" values="0 0 0 0 0 0 0 0 0 0 0 0 0 0 0 0 0 0 127 0" result="hardAlpha"/>
<feOffset dx="-1" dy="2"/>
<feGaussianBlur stdDeviation="4"/>
<feComposite in2="hardAlpha" operator="arithmetic" k2="-1" k3="1"/>
<feColorMatrix type="matrix" values="0 0 0 0 0.483333 0 0 0 0 0.307755 0 0 0 0 0.110764 0 0 0 1 0"/>
<feBlend mode="normal" in2="effect1_innerShadow_36_846" result="effect2_innerShadow_36_846"/>
<feColorMatrix in="SourceAlpha" type="matrix" values="0 0 0 0 0 0 0 0 0 0 0 0 0 0 0 0 0 0 127 0" result="hardAlpha"/>
<feOffset dx="7" dy="11"/>
<feGaussianBlur stdDeviation="5.5"/>
<feComposite in2="hardAlpha" operator="arithmetic" k2="-1" k3="1"/>
<feColorMatrix type="matrix" values="0 0 0 0 0.862745 0 0 0 0 0.74902 0 0 0 0 0.54902 0 0 0 1 0"/>
<feBlend mode="normal" in2="effect2_innerShadow_36_846" result="effect3_innerShadow_36_846"/>
</filter>
<filter id="filter9_f_36_846" x="46" y="148" width="88.8389" height="157.427" filterUnits="userSpaceOnUse" color-interpolation-filters="sRGB">
<feFlood flood-opacity="0" result="BackgroundImageFix"/>
<feBlend mode="normal" in="SourceGraphic" in2="BackgroundImageFix" result="shape"/>
<feGaussianBlur stdDeviation="4" result="effect1_foregroundBlur_36_846"/>
</filter>
<filter id="filter10_f_36_846" x="59.7129" y="155.218" width="52.8516" height="75.1675" filterUnits="userSpaceOnUse" color-interpolation-filters="sRGB">
<feFlood flood-opacity="0" result="BackgroundImageFix"/>
<feBlend mode="normal" in="SourceGraphic" in2="BackgroundImageFix" result="shape"/>
<feGaussianBlur stdDeviation="3" result="effect1_foregroundBlur_36_846"/>
</filter>
<filter id="filter11_f_36_846" x="71.1748" y="169.393" width="41" height="54" filterUnits="userSpaceOnUse" color-interpolation-filters="sRGB">
<feFlood flood-opacity="0" result="BackgroundImageFix"/>
<feBlend mode="normal" in="SourceGraphic" in2="BackgroundImageFix" result="shape"/>
<feGaussianBlur stdDeviation="4" result="effect1_foregroundBlur_36_846"/>
</filter>
<filter id="filter12_f_36_846" x="91" y="213" width="39" height="93" filterUnits="userSpaceOnUse" color-interpolation-filters="sRGB">
<feFlood flood-opacity="0" result="BackgroundImageFix"/>
<feBlend mode="normal" in="SourceGraphic" in2="BackgroundImageFix" result="shape"/>
<feGaussianBlur stdDeviation="5" result="effect1_foregroundBlur_36_846"/>
</filter>
<filter id="filter13_ii_36_846" x="300" y="125" width="112.715" height="180.504" filterUnits="userSpaceOnUse" color-interpolation-filters="sRGB">
<feFlood flood-opacity="0" result="BackgroundImageFix"/>
<feBlend mode="normal" in="SourceGraphic" in2="BackgroundImageFix" result="shape"/>
<feColorMatrix in="SourceAlpha" type="matrix" values="0 0 0 0 0 0 0 0 0 0 0 0 0 0 0 0 0 0 127 0" result="hardAlpha"/>
<feOffset dx="38" dy="-9"/>
<feGaussianBlur stdDeviation="38.5"/>
<feComposite in2="hardAlpha" operator="arithmetic" k2="-1" k3="1"/>
<feColorMatrix type="matrix" values="0 0 0 0 0.775 0 0 0 0 0.580256 0 0 0 0 0.2325 0 0 0 1 0"/>
<feBlend mode="normal" in2="shape" result="effect1_innerShadow_36_846"/>
<feColorMatrix in="SourceAlpha" type="matrix" values="0 0 0 0 0 0 0 0 0 0 0 0 0 0 0 0 0 0 127 0" result="hardAlpha"/>
<feOffset dx="7" dy="11"/>
<feGaussianBlur stdDeviation="5.5"/>
<feComposite in2="hardAlpha" operator="arithmetic" k2="-1" k3="1"/>
<feColorMatrix type="matrix" values="0 0 0 0 0.991667 0 0 0 0 0.803434 0 0 0 0 0.483438 0 0 0 1 0"/>
<feBlend mode="normal" in2="effect1_innerShadow_36_846" result="effect2_innerShadow_36_846"/>
</filter>
<filter id="filter14_f_36_846" x="299" y="161" width="59.8613" height="94.2041" filterUnits="userSpaceOnUse" color-interpolation-filters="sRGB">
<feFlood flood-opacity="0" result="BackgroundImageFix"/>
<feBlend mode="normal" in="SourceGraphic" in2="BackgroundImageFix" result="shape"/>
<feGaussianBlur stdDeviation="4" result="effect1_foregroundBlur_36_846"/>
</filter>
<filter id="filter15_f_36_846" x="284.945" y="218.084" width="43.6426" height="91.125" filterUnits="userSpaceOnUse" color-interpolation-filters="sRGB">
<feFlood flood-opacity="0" result="BackgroundImageFix"/>
<feBlend mode="normal" in="SourceGraphic" in2="BackgroundImageFix" result="shape"/>
<feGaussianBlur stdDeviation="3.5" result="effect1_foregroundBlur_36_846"/>
</filter>
<filter id="filter16_f_36_846" x="310" y="170" width="34" height="54" filterUnits="userSpaceOnUse" color-interpolation-filters="sRGB">
<feFlood flood-opacity="0" result="BackgroundImageFix"/>
<feBlend mode="normal" in="SourceGraphic" in2="BackgroundImageFix" result="shape"/>
<feGaussianBlur stdDeviation="2.5" result="effect1_foregroundBlur_36_846"/>
</filter>
<filter id="filter17_ii_36_846" x="95" y="-9" width="269.656" height="371.117" filterUnits="userSpaceOnUse" color-interpolation-filters="sRGB">
<feFlood flood-opacity="0" result="BackgroundImageFix"/>
<feBlend mode="normal" in="SourceGraphic" in2="BackgroundImageFix" result="shape"/>
<feColorMatrix in="SourceAlpha" type="matrix" values="0 0 0 0 0 0 0 0 0 0 0 0 0 0 0 0 0 0 127 0" result="hardAlpha"/>
<feOffset dx="38" dy="-9"/>
<feGaussianBlur stdDeviation="38.5"/>
<feComposite in2="hardAlpha" operator="arithmetic" k2="-1" k3="1"/>
<feColorMatrix type="matrix" values="0 0 0 0 0.595833 0 0 0 0 0.414902 0 0 0 0 0.228403 0 0 0 1 0"/>
<feBlend mode="normal" in2="shape" result="effect1_innerShadow_36_846"/>
<feColorMatrix in="SourceAlpha" type="matrix" values="0 0 0 0 0 0 0 0 0 0 0 0 0 0 0 0 0 0 127 0" result="hardAlpha"/>
<feOffset dx="-1" dy="2"/>
<feGaussianBlur stdDeviation="4"/>
<feComposite in2="hardAlpha" operator="arithmetic" k2="-1" k3="1"/>
<feColorMatrix type="matrix" values="0 0 0 0 1 0 0 0 0 0.905564 0 0 0 0 0.7375 0 0 0 1 0"/>
<feBlend mode="normal" in2="effect1_innerShadow_36_846" result="effect2_innerShadow_36_846"/>
</filter>
<filter id="filter18_f_36_846" x="64" y="123" width="294" height="220" filterUnits="userSpaceOnUse" color-interpolation-filters="sRGB">
<feFlood flood-opacity="0" result="BackgroundImageFix"/>
<feBlend mode="normal" in="SourceGraphic" in2="BackgroundImageFix" result="shape"/>
<feGaussianBlur stdDeviation="8" result="effect1_foregroundBlur_36_846"/>
</filter>
<filter id="filter19_f_36_846" x="124" y="314" width="88.5449" height="62.8687" filterUnits="userSpaceOnUse" color-interpolation-filters="sRGB">
<feFlood flood-opacity="0" result="BackgroundImageFix"/>
<feBlend mode="normal" in="SourceGraphic" in2="BackgroundImageFix" result="shape"/>
<feGaussianBlur stdDeviation="5.5" result="effect1_foregroundBlur_36_846"/>
</filter>
<filter id="filter20_f_36_846" x="164" y="291.025" width="106.942" height="98.4746" filterUnits="userSpaceOnUse" color-interpolation-filters="sRGB">
<feFlood flood-opacity="0" result="BackgroundImageFix"/>
<feBlend mode="normal" in="SourceGraphic" in2="BackgroundImageFix" result="shape"/>
<feGaussianBlur stdDeviation="11.5" result="effect1_foregroundBlur_36_846"/>
</filter>
<filter id="filter21_f_36_846" x="108.488" y="343" width="91.0664" height="26" filterUnits="userSpaceOnUse" color-interpolation-filters="sRGB">
<feFlood flood-opacity="0" result="BackgroundImageFix"/>
<feBlend mode="normal" in="SourceGraphic" in2="BackgroundImageFix" result="shape"/>
<feGaussianBlur stdDeviation="3" result="effect1_foregroundBlur_36_846"/>
</filter>
<filter id="filter22_f_36_846" x="132" y="226" width="96.7959" height="76.7231" filterUnits="userSpaceOnUse" color-interpolation-filters="sRGB">
<feFlood flood-opacity="0" result="BackgroundImageFix"/>
<feBlend mode="normal" in="SourceGraphic" in2="BackgroundImageFix" result="shape"/>
<feGaussianBlur stdDeviation="6.5" result="effect1_foregroundBlur_36_846"/>
</filter>
<filter id="filter23_f_36_846" x="86.8047" y="72.5" width="250.195" height="50.5972" filterUnits="userSpaceOnUse" color-interpolation-filters="sRGB">
<feFlood flood-opacity="0" result="BackgroundImageFix"/>
<feBlend mode="normal" in="SourceGraphic" in2="BackgroundImageFix" result="shape"/>
<feGaussianBlur stdDeviation="7" result="effect1_foregroundBlur_36_846"/>
</filter>
<filter id="filter24_f_36_846" x="81" y="105.709" width="257.45" height="72.7031" filterUnits="userSpaceOnUse" color-interpolation-filters="sRGB">
<feFlood flood-opacity="0" result="BackgroundImageFix"/>
<feBlend mode="normal" in="SourceGraphic" in2="BackgroundImageFix" result="shape"/>
<feGaussianBlur stdDeviation="4.5" result="effect1_foregroundBlur_36_846"/>
</filter>
<filter id="filter25_f_36_846" x="89" y="114" width="243.927" height="56.4292" filterUnits="userSpaceOnUse" color-interpolation-filters="sRGB">
<feFlood flood-opacity="0" result="BackgroundImageFix"/>
<feBlend mode="normal" in="SourceGraphic" in2="BackgroundImageFix" result="shape"/>
<feGaussianBlur stdDeviation="1" result="effect1_foregroundBlur_36_846"/>
</filter>
<filter id="filter26_ii_36_846" x="87.0117" y="72.8115" width="256.065" height="92.5234" filterUnits="userSpaceOnUse" color-interpolation-filters="sRGB">
<feFlood flood-opacity="0" result="BackgroundImageFix"/>
<feBlend mode="normal" in="SourceGraphic" in2="BackgroundImageFix" result="shape"/>
<feColorMatrix in="SourceAlpha" type="matrix" values="0 0 0 0 0 0 0 0 0 0 0 0 0 0 0 0 0 0 127 0" result="hardAlpha"/>
<feOffset dx="9.60779" dy="-1.06753"/>
<feGaussianBlur stdDeviation="8.00649"/>
<feComposite in2="hardAlpha" operator="arithmetic" k2="-1" k3="1"/>
<feColorMatrix type="matrix" values="0 0 0 0 0.231373 0 0 0 0 0.470588 0 0 0 0 0.615686 0 0 0 1 0"/>
<feBlend mode="normal" in2="shape" result="effect1_innerShadow_36_846"/>
<feColorMatrix in="SourceAlpha" type="matrix" values="0 0 0 0 0 0 0 0 0 0 0 0 0 0 0 0 0 0 127 0" result="hardAlpha"/>
<feOffset dy="-2"/>
<feGaussianBlur stdDeviation="3"/>
<feComposite in2="hardAlpha" operator="arithmetic" k2="-1" k3="1"/>
<feColorMatrix type="matrix" values="0 0 0 0 0.163854 0 0 0 0 0.386135 0 0 0 0 0.595833 0 0 0 1 0"/>
<feBlend mode="normal" in2="effect1_innerShadow_36_846" result="effect2_innerShadow_36_846"/>
</filter>
<filter id="filter27_f_36_846" x="56" y="70.0005" width="69.0117" height="103" filterUnits="userSpaceOnUse" color-interpolation-filters="sRGB">
<feFlood flood-opacity="0" result="BackgroundImageFix"/>
<feBlend mode="normal" in="SourceGraphic" in2="BackgroundImageFix" result="shape"/>
<feGaussianBlur stdDeviation="5" result="effect1_foregroundBlur_36_846"/>
</filter>
<filter id="filter28_f_36_846" x="268" y="77.0005" width="76.9766" height="96" filterUnits="userSpaceOnUse" color-interpolation-filters="sRGB">
<feFlood flood-opacity="0" result="BackgroundImageFix"/>
<feBlend mode="normal" in="SourceGraphic" in2="BackgroundImageFix" result="shape"/>
<feGaussianBlur stdDeviation="6.5" result="effect1_foregroundBlur_36_846"/>
</filter>
<filter id="filter29_f_36_846" x="90.5" y="66.4956" width="121.449" height="108.441" filterUnits="userSpaceOnUse" color-interpolation-filters="sRGB">
<feFlood flood-opacity="0" result="BackgroundImageFix"/>
<feBlend mode="normal" in="SourceGraphic" in2="BackgroundImageFix" result="shape"/>
<feGaussianBlur stdDeviation="8" result="effect1_foregroundBlur_36_846"/>
</filter>
<filter id="filter30_f_36_846" x="189.163" y="102" width="94.8643" height="67.5044" filterUnits="userSpaceOnUse" color-interpolation-filters="sRGB">
<feFlood flood-opacity="0" result="BackgroundImageFix"/>
<feBlend mode="normal" in="SourceGraphic" in2="BackgroundImageFix" result="shape"/>
<feGaussianBlur stdDeviation="5.5" result="effect1_foregroundBlur_36_846"/>
</filter>
<filter id="filter31_diii_36_846" x="175.595" y="93.6623" width="128.492" height="73.057" filterUnits="userSpaceOnUse" color-interpolation-filters="sRGB">
<feFlood flood-opacity="0" result="BackgroundImageFix"/>
<feColorMatrix in="SourceAlpha" type="matrix" values="0 0 0 0 0 0 0 0 0 0 0 0 0 0 0 0 0 0 127 0" result="hardAlpha"/>
<feOffset dx="-2" dy="1.06753"/>
<feGaussianBlur stdDeviation="3.2026"/>
<feColorMatrix type="matrix" values="0 0 0 0 0.174688 0 0 0 0 0.35742 0 0 0 0 0.4875 0 0 0 1 0"/>
<feBlend mode="normal" in2="BackgroundImageFix" result="effect1_dropShadow_36_846"/>
<feBlend mode="normal" in="SourceGraphic" in2="effect1_dropShadow_36_846" result="shape"/>
<feColorMatrix in="SourceAlpha" type="matrix" values="0 0 0 0 0 0 0 0 0 0 0 0 0 0 0 0 0 0 127 0" result="hardAlpha"/>
<feOffset dx="11.7428"/>
<feGaussianBlur stdDeviation="8.54025"/>
<feComposite in2="hardAlpha" operator="arithmetic" k2="-1" k3="1"/>
<feColorMatrix type="matrix" values="0 0 0 0 0.507917 0 0 0 0 0.628051 0 0 0 0 0.766667 0 0 0 0.49 0"/>
<feBlend mode="normal" in2="shape" result="effect2_innerShadow_36_846"/>
<feColorMatrix in="SourceAlpha" type="matrix" values="0 0 0 0 0 0 0 0 0 0 0 0 0 0 0 0 0 0 127 0" result="hardAlpha"/>
<feOffset dx="2.13506"/>
<feGaussianBlur stdDeviation="2.13506"/>
<feComposite in2="hardAlpha" operator="arithmetic" k2="-1" k3="1"/>
<feColorMatrix type="matrix" values="0 0 0 0 1 0 0 0 0 1 0 0 0 0 1 0 0 0 0.25 0"/>
<feBlend mode="normal" in2="effect2_innerShadow_36_846" result="effect3_innerShadow_36_846"/>
<feColorMatrix in="SourceAlpha" type="matrix" values="0 0 0 0 0 0 0 0 0 0 0 0 0 0 0 0 0 0 127 0" result="hardAlpha"/>
<feOffset dx="4" dy="-3"/>
<feGaussianBlur stdDeviation="3.5"/>
<feComposite in2="hardAlpha" operator="arithmetic" k2="-1" k3="1"/>
<feColorMatrix type="matrix" values="0 0 0 0 0 0 0 0 0 0 0 0 0 0 0 0 0 0 0.25 0"/>
<feBlend mode="normal" in2="effect3_innerShadow_36_846" result="effect4_innerShadow_36_846"/>
</filter>
<filter id="filter32_i_36_846" x="270.58" y="114.309" width="12.3846" height="12.3851" filterUnits="userSpaceOnUse" color-interpolation-filters="sRGB">
<feFlood flood-opacity="0" result="BackgroundImageFix"/>
<feBlend mode="normal" in="SourceGraphic" in2="BackgroundImageFix" result="shape"/>
<feColorMatrix in="SourceAlpha" type="matrix" values="0 0 0 0 0 0 0 0 0 0 0 0 0 0 0 0 0 0 127 0" result="hardAlpha"/>
<feOffset dx="-0.728369" dy="0.728369"/>
<feGaussianBlur stdDeviation="0.728369"/>
<feComposite in2="hardAlpha" operator="arithmetic" k2="-1" k3="1"/>
<feColorMatrix type="matrix" values="0 0 0 0 1 0 0 0 0 1 0 0 0 0 1 0 0 0 0.5 0"/>
<feBlend mode="normal" in2="shape" result="effect1_innerShadow_36_846"/>
</filter>
<filter id="filter33_f_36_846" x="275.037" y="117.185" width="11.5005" height="10.4927" filterUnits="userSpaceOnUse" color-interpolation-filters="sRGB">
<feFlood flood-opacity="0" result="BackgroundImageFix"/>
<feBlend mode="normal" in="SourceGraphic" in2="BackgroundImageFix" result="shape"/>
<feGaussianBlur stdDeviation="1.82092" result="effect1_foregroundBlur_36_846"/>
</filter>
<filter id="filter34_f_36_846" x="278.841" y="121.176" width="4.33174" height="3.63545" filterUnits="userSpaceOnUse" color-interpolation-filters="sRGB">
<feFlood flood-opacity="0" result="BackgroundImageFix"/>
<feBlend mode="normal" in="SourceGraphic" in2="BackgroundImageFix" result="shape"/>
<feGaussianBlur stdDeviation="0.364185" result="effect1_foregroundBlur_36_846"/>
</filter>
<filter id="filter35_i_36_846" x="221.58" y="121.309" width="12.3846" height="12.3851" filterUnits="userSpaceOnUse" color-interpolation-filters="sRGB">
<feFlood flood-opacity="0" result="BackgroundImageFix"/>
<feBlend mode="normal" in="SourceGraphic" in2="BackgroundImageFix" result="shape"/>
<feColorMatrix in="SourceAlpha" type="matrix" values="0 0 0 0 0 0 0 0 0 0 0 0 0 0 0 0 0 0 127 0" result="hardAlpha"/>
<feOffset dx="-0.728369" dy="0.728369"/>
<feGaussianBlur stdDeviation="0.728369"/>
<feComposite in2="hardAlpha" operator="arithmetic" k2="-1" k3="1"/>
<feColorMatrix type="matrix" values="0 0 0 0 1 0 0 0 0 1 0 0 0 0 1 0 0 0 0.5 0"/>
<feBlend mode="normal" in2="shape" result="effect1_innerShadow_36_846"/>
</filter>
<filter id="filter36_f_36_846" x="226.037" y="124.185" width="11.5005" height="10.4927" filterUnits="userSpaceOnUse" color-interpolation-filters="sRGB">
<feFlood flood-opacity="0" result="BackgroundImageFix"/>
<feBlend mode="normal" in="SourceGraphic" in2="BackgroundImageFix" result="shape"/>
<feGaussianBlur stdDeviation="1.82092" result="effect1_foregroundBlur_36_846"/>
</filter>
<filter id="filter37_f_36_846" x="229.798" y="128.128" width="4.36006" height="3.62227" filterUnits="userSpaceOnUse" color-interpolation-filters="sRGB">
<feFlood flood-opacity="0" result="BackgroundImageFix"/>
<feBlend mode="normal" in="SourceGraphic" in2="BackgroundImageFix" result="shape"/>
<feGaussianBlur stdDeviation="0.364185" result="effect1_foregroundBlur_36_846"/>
</filter>
<filter id="filter38_dd_36_846" x="185.98" y="158.061" width="65.6211" height="45.1738" filterUnits="userSpaceOnUse" color-interpolation-filters="sRGB">
<feFlood flood-opacity="0" result="BackgroundImageFix"/>
<feColorMatrix in="SourceAlpha" type="matrix" values="0 0 0 0 0 0 0 0 0 0 0 0 0 0 0 0 0 0 127 0" result="hardAlpha"/>
<feOffset dy="1"/>
<feGaussianBlur stdDeviation="4"/>
<feColorMatrix type="matrix" values="0 0 0 0 0.384314 0 0 0 0 0.231373 0 0 0 0 0.0862745 0 0 0 1 0"/>
<feBlend mode="normal" in2="BackgroundImageFix" result="effect1_dropShadow_36_846"/>
<feColorMatrix in="SourceAlpha" type="matrix" values="0 0 0 0 0 0 0 0 0 0 0 0 0 0 0 0 0 0 127 0" result="hardAlpha"/>
<feOffset dx="-2" dy="-1"/>
<feGaussianBlur stdDeviation="2"/>
<feColorMatrix type="matrix" values="0 0 0 0 0 0 0 0 0 0 0 0 0 0 0 0 0 0 0.25 0"/>
<feBlend mode="normal" in2="effect1_dropShadow_36_846" result="effect2_dropShadow_36_846"/>
<feBlend mode="normal" in="SourceGraphic" in2="effect2_dropShadow_36_846" result="shape"/>
</filter>
<filter id="filter39_f_36_846" x="155.467" y="175.627" width="148.138" height="77.4028" filterUnits="userSpaceOnUse" color-interpolation-filters="sRGB">
<feFlood flood-opacity="0" result="BackgroundImageFix"/>
<feBlend mode="normal" in="SourceGraphic" in2="BackgroundImageFix" result="shape"/>
<feGaussianBlur stdDeviation="6" result="effect1_foregroundBlur_36_846"/>
</filter>
<filter id="filter40_f_36_846" x="181.179" y="146.93" width="139.641" height="68.4956" filterUnits="userSpaceOnUse" color-interpolation-filters="sRGB">
<feFlood flood-opacity="0" result="BackgroundImageFix"/>
<feBlend mode="normal" in="SourceGraphic" in2="BackgroundImageFix" result="shape"/>
<feGaussianBlur stdDeviation="7.5" result="effect1_foregroundBlur_36_846"/>
</filter>
<filter id="filter41_f_36_846" x="181.5" y="162.229" width="77.5" height="51.5308" filterUnits="userSpaceOnUse" color-interpolation-filters="sRGB">
<feFlood flood-opacity="0" result="BackgroundImageFix"/>
<feBlend mode="normal" in="SourceGraphic" in2="BackgroundImageFix" result="shape"/>
<feGaussianBlur stdDeviation="6" result="effect1_foregroundBlur_36_846"/>
</filter>
<filter id="filter42_f_36_846" x="190.115" y="165.006" width="68.1309" height="33.8677" filterUnits="userSpaceOnUse" color-interpolation-filters="sRGB">
<feFlood flood-opacity="0" result="BackgroundImageFix"/>
<feBlend mode="normal" in="SourceGraphic" in2="BackgroundImageFix" result="shape"/>
<feGaussianBlur stdDeviation="1.5" result="effect1_foregroundBlur_36_846"/>
</filter>
<filter id="filter43_ddiii_36_846" x="205.595" y="224.797" width="63.013" height="74.8104" filterUnits="userSpaceOnUse" color-interpolation-filters="sRGB">
<feFlood flood-opacity="0" result="BackgroundImageFix"/>
<feColorMatrix in="SourceAlpha" type="matrix" values="0 0 0 0 0 0 0 0 0 0 0 0 0 0 0 0 0 0 127 0" result="hardAlpha"/>
<feOffset dx="-2" dy="3.2026"/>
<feGaussianBlur stdDeviation="3.2026"/>
<feColorMatrix type="matrix" values="0 0 0 0 0.278431 0 0 0 0 0.192157 0 0 0 0 0.0901961 0 0 0 0.74 0"/>
<feBlend mode="normal" in2="BackgroundImageFix" result="effect1_dropShadow_36_846"/>
<feColorMatrix in="SourceAlpha" type="matrix" values="0 0 0 0 0 0 0 0 0 0 0 0 0 0 0 0 0 0 127 0" result="hardAlpha"/>
<feOffset dy="1"/>
<feGaussianBlur stdDeviation="1"/>
<feColorMatrix type="matrix" values="0 0 0 0 0 0 0 0 0 0 0 0 0 0 0 0 0 0 0.25 0"/>
<feBlend mode="normal" in2="effect1_dropShadow_36_846" result="effect2_dropShadow_36_846"/>
<feBlend mode="normal" in="SourceGraphic" in2="effect2_dropShadow_36_846" result="shape"/>
<feColorMatrix in="SourceAlpha" type="matrix" values="0 0 0 0 0 0 0 0 0 0 0 0 0 0 0 0 0 0 127 0" result="hardAlpha"/>
<feOffset dx="9.60779" dy="-1.06753"/>
<feGaussianBlur stdDeviation="8.00649"/>
<feComposite in2="hardAlpha" operator="arithmetic" k2="-1" k3="1"/>
<feColorMatrix type="matrix" values="0 0 0 0 0.231373 0 0 0 0 0.470588 0 0 0 0 0.615686 0 0 0 1 0"/>
<feBlend mode="normal" in2="shape" result="effect3_innerShadow_36_846"/>
<feColorMatrix in="SourceAlpha" type="matrix" values="0 0 0 0 0 0 0 0 0 0 0 0 0 0 0 0 0 0 127 0" result="hardAlpha"/>
<feOffset dy="-2"/>
<feGaussianBlur stdDeviation="3"/>
<feComposite in2="hardAlpha" operator="arithmetic" k2="-1" k3="1"/>
<feColorMatrix type="matrix" values="0 0 0 0 0.163854 0 0 0 0 0.386135 0 0 0 0 0.595833 0 0 0 1 0"/>
<feBlend mode="normal" in2="effect3_innerShadow_36_846" result="effect4_innerShadow_36_846"/>
<feColorMatrix in="SourceAlpha" type="matrix" values="0 0 0 0 0 0 0 0 0 0 0 0 0 0 0 0 0 0 127 0" result="hardAlpha"/>
<feOffset dy="4"/>
<feGaussianBlur stdDeviation="2"/>
<feComposite in2="hardAlpha" operator="arithmetic" k2="-1" k3="1"/>
<feColorMatrix type="matrix" values="0 0 0 0 0.523663 0 0 0 0 0.717505 0 0 0 0 0.904167 0 0 0 1 0"/>
<feBlend mode="normal" in2="effect4_innerShadow_36_846" result="effect5_innerShadow_36_846"/>
</filter>
<linearGradient id="paint0_linear_36_846" x1="329" y1="200" x2="328.931" y2="247.204" gradientUnits="userSpaceOnUse">
<stop stop-color="#613D1D"/>
<stop offset="1" stop-color="#613D1D" stop-opacity="0"/>
</linearGradient>
<linearGradient id="paint1_linear_36_846" x1="327.038" y1="192.441" x2="326.998" y2="219" gradientUnits="userSpaceOnUse">
<stop stop-color="#511F03"/>
<stop offset="1" stop-color="#613D1D" stop-opacity="0"/>
</linearGradient>
<linearGradient id="paint2_linear_36_846" x1="237" y1="162" x2="179.24" y2="326.222" gradientUnits="userSpaceOnUse">
<stop offset="0.364583" stop-color="#8C6639" stop-opacity="0"/>
<stop offset="1" stop-color="#8C6639"/>
</linearGradient>
<linearGradient id="paint3_linear_36_846" x1="191" y1="340" x2="135" y2="338.5" gradientUnits="userSpaceOnUse">
<stop stop-color="#E8C38D"/>
<stop offset="1" stop-color="#BE9558" stop-opacity="0"/>
</linearGradient>
<linearGradient id="paint4_linear_36_846" x1="170" y1="244.5" x2="180" y2="281.5" gradientUnits="userSpaceOnUse">
<stop stop-color="#946F41"/>
<stop offset="1" stop-color="#946F41" stop-opacity="0"/>
</linearGradient>
<linearGradient id="paint5_linear_36_846" x1="104.5" y1="92.0002" x2="102.5" y2="80.0002" gradientUnits="userSpaceOnUse">
<stop stop-color="#0C2339"/>
<stop offset="1" stop-color="#32698E"/>
</linearGradient>
<linearGradient id="paint6_linear_36_846" x1="322.981" y1="93.0066" x2="322.427" y2="89.4611" gradientUnits="userSpaceOnUse">
<stop stop-color="#0C2339"/>
<stop offset="1" stop-color="#32698E"/>
</linearGradient>
<linearGradient id="paint7_linear_36_846" x1="225.046" y1="181.017" x2="222.852" y2="223.461" gradientUnits="userSpaceOnUse">
<stop stop-color="#9E794C"/>
<stop offset="1" stop-color="#9E794C" stop-opacity="0"/>
</linearGradient>
<linearGradient id="paint8_linear_36_846" x1="207.715" y1="183.583" x2="219.215" y2="194.083" gradientUnits="userSpaceOnUse">
<stop stop-color="#F1D5A5"/>
<stop offset="1" stop-color="#F5DFB9" stop-opacity="0"/>
</linearGradient>
</defs>
</svg>
